<svg xmlns="http://www.w3.org/2000/svg" xmlns:xlink="http://www.w3.org/1999/xlink" width="500" zoomAndPan="magnify" viewBox="0 0 375 374.999991" height="500" preserveAspectRatio="xMidYMid meet" version="1.0"><defs><g/><clipPath id="d34ec8148f"><path d="M 100.464844 118.832031 L 180 118.832031 L 180 224.582031 L 100.464844 224.582031 Z M 100.464844 118.832031 " clip-rule="nonzero"/></clipPath><clipPath id="104299993e"><path d="M 142 118.832031 L 274.464844 118.832031 L 274.464844 224.582031 L 142 224.582031 Z M 142 118.832031 " clip-rule="nonzero"/></clipPath><clipPath id="990f106e2f"><path d="M 121.171875 158.527344 L 173.671875 158.527344 L 173.671875 199.777344 L 121.171875 199.777344 Z M 121.171875 158.527344 " clip-rule="nonzero"/></clipPath><clipPath id="245510fcc5"><path d="M 164.726562 163.050781 L 173.492188 163.050781 L 173.492188 171.816406 L 164.726562 171.816406 Z M 164.726562 163.050781 " clip-rule="nonzero"/></clipPath><clipPath id="9eb33e22a0"><path d="M 169.109375 163.050781 C 166.6875 163.050781 164.726562 165.011719 164.726562 167.433594 C 164.726562 169.855469 166.6875 171.816406 169.109375 171.816406 C 171.53125 171.816406 173.492188 169.855469 173.492188 167.433594 C 173.492188 165.011719 171.53125 163.050781 169.109375 163.050781 Z M 169.109375 163.050781 " clip-rule="nonzero"/></clipPath></defs><g clip-path="url(#d34ec8148f)"><path fill="#f6e7d8" d="M 160.304688 169.84375 L 179.316406 169.84375 L 160.304688 118.871094 L 139.949219 118.871094 L 121.398438 168.613281 L 100.457031 224.753906 L 119.464844 224.753906 L 140.402344 168.613281 L 150.125 142.546875 L 160.304688 169.84375 " fill-opacity="1" fill-rule="nonzero"/></g><g clip-path="url(#104299993e)"><path fill="#f14902" d="M 221.59375 118.871094 L 171.8125 118.871094 L 200.289062 195.230469 L 219.296875 195.230469 L 197.460938 136.679688 L 221.59375 136.679688 C 241 136.679688 256.730469 152.410156 256.730469 171.8125 C 256.730469 191.214844 241 206.945312 221.59375 206.945312 L 193.152344 206.945312 L 187.980469 193.078125 L 183.6875 181.566406 L 148.839844 181.566406 L 142.882812 199.375 L 171.320312 199.375 L 180.789062 224.753906 L 222.464844 224.753906 L 222.460938 224.746094 C 251.300781 224.28125 274.539062 200.761719 274.539062 171.8125 C 274.539062 142.574219 250.835938 118.871094 221.59375 118.871094 " fill-opacity="1" fill-rule="nonzero"/></g><g fill="#ffffff" fill-opacity="1"><g transform="translate(126.497399, 251.950589)"><g><path d="M 9.828125 -3.125 L 3.1875 -3.125 L 1.8125 0 L -0.015625 0 L 5.640625 -12.484375 L 7.40625 -12.484375 L 13.0625 0 L 11.203125 0 Z M 9.203125 -4.546875 L 6.5 -10.65625 L 3.8125 -4.546875 Z M 9.203125 -4.546875 "/></g></g></g><g fill="#ffffff" fill-opacity="1"><g transform="translate(141.131533, 251.950589)"><g><path d="M 10.21875 0 L 7.53125 -3.828125 C 7.195312 -3.804688 6.929688 -3.796875 6.734375 -3.796875 L 3.65625 -3.796875 L 3.65625 0 L 1.875 0 L 1.875 -12.484375 L 6.734375 -12.484375 C 8.347656 -12.484375 9.617188 -12.09375 10.546875 -11.3125 C 11.472656 -10.539062 11.9375 -9.476562 11.9375 -8.125 C 11.9375 -7.164062 11.695312 -6.347656 11.21875 -5.671875 C 10.75 -4.992188 10.078125 -4.5 9.203125 -4.1875 L 12.15625 0 Z M 6.6875 -5.3125 C 7.8125 -5.3125 8.671875 -5.554688 9.265625 -6.046875 C 9.859375 -6.535156 10.15625 -7.226562 10.15625 -8.125 C 10.15625 -9.03125 9.859375 -9.722656 9.265625 -10.203125 C 8.671875 -10.679688 7.8125 -10.921875 6.6875 -10.921875 L 3.65625 -10.921875 L 3.65625 -5.3125 Z M 6.6875 -5.3125 "/></g></g></g><g fill="#ffffff" fill-opacity="1"><g transform="translate(155.676552, 251.950589)"><g><path d="M 1.875 -12.484375 L 7.125 -12.484375 C 8.445312 -12.484375 9.617188 -12.21875 10.640625 -11.6875 C 11.660156 -11.164062 12.453125 -10.429688 13.015625 -9.484375 C 13.585938 -8.546875 13.875 -7.460938 13.875 -6.234375 C 13.875 -5.015625 13.585938 -3.929688 13.015625 -2.984375 C 12.453125 -2.035156 11.660156 -1.300781 10.640625 -0.78125 C 9.617188 -0.257812 8.445312 0 7.125 0 L 1.875 0 Z M 7.03125 -1.546875 C 8.039062 -1.546875 8.925781 -1.742188 9.6875 -2.140625 C 10.457031 -2.535156 11.050781 -3.082031 11.46875 -3.78125 C 11.882812 -4.488281 12.09375 -5.304688 12.09375 -6.234375 C 12.09375 -7.160156 11.882812 -7.976562 11.46875 -8.6875 C 11.050781 -9.394531 10.457031 -9.941406 9.6875 -10.328125 C 8.925781 -10.722656 8.039062 -10.921875 7.03125 -10.921875 L 3.65625 -10.921875 L 3.65625 -1.546875 Z M 7.03125 -1.546875 "/></g></g></g><g fill="#ffffff" fill-opacity="1"><g transform="translate(171.986158, 251.950589)"><g><path d="M 1.875 -12.484375 L 3.65625 -12.484375 L 3.65625 0 L 1.875 0 Z M 1.875 -12.484375 "/></g></g></g><g fill="#ffffff" fill-opacity="1"><g transform="translate(179.098492, 251.950589)"><g><path d="M 7.453125 0.140625 C 6.203125 0.140625 5.070312 -0.132812 4.0625 -0.6875 C 3.0625 -1.238281 2.273438 -2 1.703125 -2.96875 C 1.140625 -3.9375 0.859375 -5.023438 0.859375 -6.234375 C 0.859375 -7.453125 1.140625 -8.546875 1.703125 -9.515625 C 2.273438 -10.484375 3.066406 -11.242188 4.078125 -11.796875 C 5.085938 -12.347656 6.21875 -12.625 7.46875 -12.625 C 8.445312 -12.625 9.335938 -12.457031 10.140625 -12.125 C 10.953125 -11.800781 11.644531 -11.316406 12.21875 -10.671875 L 11.046875 -9.5625 C 10.109375 -10.539062 8.941406 -11.03125 7.546875 -11.03125 C 6.617188 -11.03125 5.78125 -10.820312 5.03125 -10.40625 C 4.28125 -9.988281 3.691406 -9.414062 3.265625 -8.6875 C 2.847656 -7.957031 2.640625 -7.140625 2.640625 -6.234375 C 2.640625 -5.335938 2.847656 -4.519531 3.265625 -3.78125 C 3.691406 -3.050781 4.28125 -2.476562 5.03125 -2.0625 C 5.78125 -1.644531 6.617188 -1.4375 7.546875 -1.4375 C 8.929688 -1.4375 10.097656 -1.9375 11.046875 -2.9375 L 12.21875 -1.8125 C 11.644531 -1.175781 10.953125 -0.691406 10.140625 -0.359375 C 9.328125 -0.0234375 8.429688 0.140625 7.453125 0.140625 Z M 7.453125 0.140625 "/></g></g></g><g fill="#ffffff" fill-opacity="1"><g transform="translate(193.572211, 251.950589)"><g><path d="M 4.34375 -10.921875 L 0.078125 -10.921875 L 0.078125 -12.484375 L 10.390625 -12.484375 L 10.390625 -10.921875 L 6.109375 -10.921875 L 6.109375 0 L 4.34375 0 Z M 4.34375 -10.921875 "/></g></g></g><g fill="#ffffff" fill-opacity="1"><g transform="translate(205.621843, 251.950589)"><g><path d="M 7.046875 0.140625 C 5.378906 0.140625 4.082031 -0.332031 3.15625 -1.28125 C 2.226562 -2.226562 1.765625 -3.597656 1.765625 -5.390625 L 1.765625 -12.484375 L 3.546875 -12.484375 L 3.546875 -5.453125 C 3.546875 -2.773438 4.71875 -1.4375 7.0625 -1.4375 C 8.195312 -1.4375 9.066406 -1.765625 9.671875 -2.421875 C 10.285156 -3.085938 10.59375 -4.097656 10.59375 -5.453125 L 10.59375 -12.484375 L 12.3125 -12.484375 L 12.3125 -5.390625 C 12.3125 -3.585938 11.847656 -2.210938 10.921875 -1.265625 C 9.992188 -0.328125 8.703125 0.140625 7.046875 0.140625 Z M 7.046875 0.140625 "/></g></g></g><g fill="#ffffff" fill-opacity="1"><g transform="translate(221.307606, 251.950589)"><g><path d="M 10.21875 0 L 7.53125 -3.828125 C 7.195312 -3.804688 6.929688 -3.796875 6.734375 -3.796875 L 3.65625 -3.796875 L 3.65625 0 L 1.875 0 L 1.875 -12.484375 L 6.734375 -12.484375 C 8.347656 -12.484375 9.617188 -12.09375 10.546875 -11.3125 C 11.472656 -10.539062 11.9375 -9.476562 11.9375 -8.125 C 11.9375 -7.164062 11.695312 -6.347656 11.21875 -5.671875 C 10.75 -4.992188 10.078125 -4.5 9.203125 -4.1875 L 12.15625 0 Z M 6.6875 -5.3125 C 7.8125 -5.3125 8.671875 -5.554688 9.265625 -6.046875 C 9.859375 -6.535156 10.15625 -7.226562 10.15625 -8.125 C 10.15625 -9.03125 9.859375 -9.722656 9.265625 -10.203125 C 8.671875 -10.679688 7.8125 -10.921875 6.6875 -10.921875 L 3.65625 -10.921875 L 3.65625 -5.3125 Z M 6.6875 -5.3125 "/></g></g></g><path stroke-linecap="round" transform="matrix(0.75, 0, 0, 0.75, 237.074243, 239.686508)" fill="none" stroke-linejoin="miter" d="M 0.999968 1.001322 L 14.239553 1.001322 " stroke="#ffffff" stroke-width="2" stroke-opacity="1" stroke-miterlimit="4"/><path stroke-linecap="round" transform="matrix(0.75, 0, 0, 0.75, 237.074243, 244.82559)" fill="none" stroke-linejoin="miter" d="M 0.999968 0.998172 L 14.239553 0.998172 " stroke="#ffffff" stroke-width="2" stroke-opacity="1" stroke-miterlimit="4"/><path stroke-linecap="round" transform="matrix(0.75, 0, 0, 0.75, 237.074243, 250.336508)" fill="none" stroke-linejoin="miter" d="M 0.999968 0.99924 L 14.239553 0.99924 " stroke="#ffffff" stroke-width="2" stroke-opacity="1" stroke-miterlimit="4"/><g clip-path="url(#990f106e2f)"><path fill="#f6e7d8" d="M 147.246094 199.730469 C 140.769531 199.730469 134.289062 199.734375 127.8125 199.730469 C 123.671875 199.726562 121.179688 197.230469 121.175781 193.089844 C 121.171875 185.875 121.171875 178.65625 121.175781 171.4375 C 121.175781 167.308594 123.691406 164.804688 127.835938 164.804688 C 132.304688 164.804688 136.777344 164.789062 141.25 164.820312 C 141.910156 164.824219 142.199219 164.617188 142.488281 164.015625 C 144.117188 160.605469 146.832031 158.710938 150.640625 158.632812 C 152.988281 158.582031 155.375 158.53125 157.6875 158.875 C 160.621094 159.3125 162.71875 161.167969 163.957031 163.851562 C 164.320312 164.644531 164.734375 164.902344 165.535156 164.816406 C 166.058594 164.757812 166.589844 164.800781 167.117188 164.804688 C 170.734375 164.832031 173.398438 167.324219 173.425781 170.925781 C 173.484375 178.53125 173.484375 186.136719 173.421875 193.742188 C 173.390625 197.222656 170.742188 199.710938 167.210938 199.722656 C 160.558594 199.746094 153.902344 199.730469 147.246094 199.730469 Z M 153.355469 168.113281 C 145.585938 168.050781 139.140625 174.359375 139.085938 182.082031 C 139.03125 189.980469 145.339844 196.425781 153.175781 196.472656 C 160.988281 196.515625 167.378906 190.191406 167.429688 182.367188 C 167.480469 174.527344 161.210938 168.171875 153.355469 168.113281 Z M 129.230469 168.785156 C 127.183594 168.792969 125.523438 170.464844 125.554688 172.492188 C 125.585938 174.480469 127.226562 176.121094 129.203125 176.144531 C 131.222656 176.167969 132.914062 174.496094 132.925781 172.464844 C 132.9375 170.425781 131.285156 168.78125 129.230469 168.785156 Z M 129.230469 168.785156 " fill-opacity="1" fill-rule="nonzero"/></g><path fill="#f6e7d8" d="M 153.230469 172.164062 C 158.859375 172.152344 163.378906 176.648438 163.382812 182.265625 C 163.386719 187.863281 158.808594 192.449219 153.246094 192.417969 C 147.703125 192.390625 143.167969 187.875 143.125 182.335938 C 143.082031 176.769531 147.644531 172.175781 153.230469 172.164062 Z M 153.230469 172.164062 " fill-opacity="1" fill-rule="nonzero"/><g clip-path="url(#245510fcc5)"><g clip-path="url(#9eb33e22a0)"><path fill="#000000" d="M 164.726562 163.050781 L 173.492188 163.050781 L 173.492188 171.816406 L 164.726562 171.816406 Z M 164.726562 163.050781 " fill-opacity="1" fill-rule="nonzero"/></g></g><g fill="#ffffff" fill-opacity="1"><g transform="translate(158.092494, 260.11205)"><g><path d="M 2.65625 -0.84375 L 0.859375 -0.84375 L 0.5 0 L 0 0 L 1.53125 -3.375 L 2 -3.375 L 3.546875 0 L 3.03125 0 Z M 2.484375 -1.234375 L 1.765625 -2.890625 L 1.03125 -1.234375 Z M 2.484375 -1.234375 "/></g></g></g><g fill="#ffffff" fill-opacity="1"><g transform="translate(162.057857, 260.11205)"><g><path d="M 2.765625 0 L 2.03125 -1.03125 C 1.945312 -1.03125 1.878906 -1.03125 1.828125 -1.03125 L 0.984375 -1.03125 L 0.984375 0 L 0.5 0 L 0.5 -3.375 L 1.828125 -3.375 C 2.265625 -3.375 2.609375 -3.269531 2.859375 -3.0625 C 3.109375 -2.851562 3.234375 -2.566406 3.234375 -2.203125 C 3.234375 -1.941406 3.164062 -1.71875 3.03125 -1.53125 C 2.90625 -1.351562 2.722656 -1.222656 2.484375 -1.140625 L 3.296875 0 Z M 1.8125 -1.4375 C 2.113281 -1.4375 2.34375 -1.5 2.5 -1.625 C 2.664062 -1.757812 2.75 -1.953125 2.75 -2.203125 C 2.75 -2.441406 2.664062 -2.625 2.5 -2.75 C 2.34375 -2.882812 2.113281 -2.953125 1.8125 -2.953125 L 0.984375 -2.953125 L 0.984375 -1.4375 Z M 1.8125 -1.4375 "/></g></g></g><g fill="#ffffff" fill-opacity="1"><g transform="translate(165.999071, 260.11205)"><g><path d="M 1.171875 -2.953125 L 0.015625 -2.953125 L 0.015625 -3.375 L 2.8125 -3.375 L 2.8125 -2.953125 L 1.65625 -2.953125 L 1.65625 0 L 1.171875 0 Z M 1.171875 -2.953125 "/></g></g></g><g fill="#ffffff" fill-opacity="1"><g transform="translate(169.264097, 260.11205)"><g/></g></g><g fill="#ffffff" fill-opacity="1"><g transform="translate(170.993209, 260.11205)"><g><path d="M 0.5 -3.375 L 1.9375 -3.375 C 2.289062 -3.375 2.601562 -3.300781 2.875 -3.15625 C 3.15625 -3.019531 3.367188 -2.820312 3.515625 -2.5625 C 3.671875 -2.3125 3.75 -2.019531 3.75 -1.6875 C 3.75 -1.351562 3.671875 -1.054688 3.515625 -0.796875 C 3.367188 -0.546875 3.15625 -0.347656 2.875 -0.203125 C 2.601562 -0.0664062 2.289062 0 1.9375 0 L 0.5 0 Z M 1.90625 -0.421875 C 2.175781 -0.421875 2.414062 -0.472656 2.625 -0.578125 C 2.832031 -0.679688 2.992188 -0.828125 3.109375 -1.015625 C 3.222656 -1.210938 3.28125 -1.4375 3.28125 -1.6875 C 3.28125 -1.9375 3.222656 -2.15625 3.109375 -2.34375 C 2.992188 -2.539062 2.832031 -2.691406 2.625 -2.796875 C 2.414062 -2.898438 2.175781 -2.953125 1.90625 -2.953125 L 0.984375 -2.953125 L 0.984375 -0.421875 Z M 1.90625 -0.421875 "/></g></g></g><g fill="#ffffff" fill-opacity="1"><g transform="translate(175.412584, 260.11205)"><g><path d="M 2.765625 0 L 2.03125 -1.03125 C 1.945312 -1.03125 1.878906 -1.03125 1.828125 -1.03125 L 0.984375 -1.03125 L 0.984375 0 L 0.5 0 L 0.5 -3.375 L 1.828125 -3.375 C 2.265625 -3.375 2.609375 -3.269531 2.859375 -3.0625 C 3.109375 -2.851562 3.234375 -2.566406 3.234375 -2.203125 C 3.234375 -1.941406 3.164062 -1.71875 3.03125 -1.53125 C 2.90625 -1.351562 2.722656 -1.222656 2.484375 -1.140625 L 3.296875 0 Z M 1.8125 -1.4375 C 2.113281 -1.4375 2.34375 -1.5 2.5 -1.625 C 2.664062 -1.757812 2.75 -1.953125 2.75 -2.203125 C 2.75 -2.441406 2.664062 -2.625 2.5 -2.75 C 2.34375 -2.882812 2.113281 -2.953125 1.8125 -2.953125 L 0.984375 -2.953125 L 0.984375 -1.4375 Z M 1.8125 -1.4375 "/></g></g></g><g fill="#ffffff" fill-opacity="1"><g transform="translate(179.353799, 260.11205)"><g><path d="M 2.65625 -0.84375 L 0.859375 -0.84375 L 0.5 0 L 0 0 L 1.53125 -3.375 L 2 -3.375 L 3.546875 0 L 3.03125 0 Z M 2.484375 -1.234375 L 1.765625 -2.890625 L 1.03125 -1.234375 Z M 2.484375 -1.234375 "/></g></g></g><g fill="#ffffff" fill-opacity="1"><g transform="translate(183.319162, 260.11205)"><g><path d="M 5.28125 -3.375 L 4.15625 0 L 3.640625 0 L 2.71875 -2.703125 L 1.796875 0 L 1.28125 0 L 0.15625 -3.375 L 0.65625 -3.375 L 1.5625 -0.625 L 2.515625 -3.375 L 2.953125 -3.375 L 3.890625 -0.625 L 4.828125 -3.375 Z M 5.28125 -3.375 "/></g></g></g><g fill="#ffffff" fill-opacity="1"><g transform="translate(189.187518, 260.11205)"><g/></g></g><g fill="#ffffff" fill-opacity="1"><g transform="translate(190.91663, 260.11205)"><g><path d="M 1.828125 -3.375 C 2.265625 -3.375 2.609375 -3.269531 2.859375 -3.0625 C 3.109375 -2.851562 3.234375 -2.566406 3.234375 -2.203125 C 3.234375 -1.835938 3.109375 -1.550781 2.859375 -1.34375 C 2.609375 -1.132812 2.265625 -1.03125 1.828125 -1.03125 L 0.984375 -1.03125 L 0.984375 0 L 0.5 0 L 0.5 -3.375 Z M 1.8125 -1.4375 C 2.113281 -1.4375 2.34375 -1.5 2.5 -1.625 C 2.664062 -1.757812 2.75 -1.953125 2.75 -2.203125 C 2.75 -2.441406 2.664062 -2.625 2.5 -2.75 C 2.34375 -2.882812 2.113281 -2.953125 1.8125 -2.953125 L 0.984375 -2.953125 L 0.984375 -1.4375 Z M 1.8125 -1.4375 "/></g></g></g><g fill="#ffffff" fill-opacity="1"><g transform="translate(194.833696, 260.11205)"><g><path d="M 0.5 -3.375 L 0.984375 -3.375 L 0.984375 0 L 0.5 0 Z M 0.5 -3.375 "/></g></g></g><g fill="#ffffff" fill-opacity="1"><g transform="translate(196.760835, 260.11205)"><g><path d="M 2.015625 0.03125 C 1.679688 0.03125 1.375 -0.0390625 1.09375 -0.1875 C 0.820312 -0.332031 0.609375 -0.535156 0.453125 -0.796875 C 0.304688 -1.066406 0.234375 -1.363281 0.234375 -1.6875 C 0.234375 -2.019531 0.304688 -2.316406 0.453125 -2.578125 C 0.609375 -2.835938 0.820312 -3.039062 1.09375 -3.1875 C 1.375 -3.34375 1.679688 -3.421875 2.015625 -3.421875 C 2.285156 -3.421875 2.53125 -3.375 2.75 -3.28125 C 2.96875 -3.195312 3.15625 -3.066406 3.3125 -2.890625 L 3 -2.59375 C 2.738281 -2.851562 2.421875 -2.984375 2.046875 -2.984375 C 1.796875 -2.984375 1.566406 -2.925781 1.359375 -2.8125 C 1.160156 -2.707031 1.003906 -2.554688 0.890625 -2.359375 C 0.773438 -2.160156 0.71875 -1.9375 0.71875 -1.6875 C 0.71875 -1.445312 0.773438 -1.226562 0.890625 -1.03125 C 1.003906 -0.832031 1.160156 -0.675781 1.359375 -0.5625 C 1.566406 -0.445312 1.796875 -0.390625 2.046875 -0.390625 C 2.421875 -0.390625 2.738281 -0.523438 3 -0.796875 L 3.3125 -0.5 C 3.15625 -0.320312 2.96875 -0.1875 2.75 -0.09375 C 2.53125 -0.0078125 2.285156 0.03125 2.015625 0.03125 Z M 2.015625 0.03125 "/></g></g></g><g fill="#ffffff" fill-opacity="1"><g transform="translate(200.682728, 260.11205)"><g><path d="M 1.171875 -2.953125 L 0.015625 -2.953125 L 0.015625 -3.375 L 2.8125 -3.375 L 2.8125 -2.953125 L 1.65625 -2.953125 L 1.65625 0 L 1.171875 0 Z M 1.171875 -2.953125 "/></g></g></g><g fill="#ffffff" fill-opacity="1"><g transform="translate(203.947755, 260.11205)"><g><path d="M 1.90625 0.03125 C 1.457031 0.03125 1.109375 -0.09375 0.859375 -0.34375 C 0.609375 -0.601562 0.484375 -0.972656 0.484375 -1.453125 L 0.484375 -3.375 L 0.953125 -3.375 L 0.953125 -1.484375 C 0.953125 -0.753906 1.269531 -0.390625 1.90625 -0.390625 C 2.21875 -0.390625 2.457031 -0.476562 2.625 -0.65625 C 2.789062 -0.832031 2.875 -1.109375 2.875 -1.484375 L 2.875 -3.375 L 3.34375 -3.375 L 3.34375 -1.453125 C 3.34375 -0.972656 3.210938 -0.601562 2.953125 -0.34375 C 2.703125 -0.09375 2.351562 0.03125 1.90625 0.03125 Z M 1.90625 0.03125 "/></g></g></g><g fill="#ffffff" fill-opacity="1"><g transform="translate(208.198085, 260.11205)"><g><path d="M 2.765625 0 L 2.03125 -1.03125 C 1.945312 -1.03125 1.878906 -1.03125 1.828125 -1.03125 L 0.984375 -1.03125 L 0.984375 0 L 0.5 0 L 0.5 -3.375 L 1.828125 -3.375 C 2.265625 -3.375 2.609375 -3.269531 2.859375 -3.0625 C 3.109375 -2.851562 3.234375 -2.566406 3.234375 -2.203125 C 3.234375 -1.941406 3.164062 -1.71875 3.03125 -1.53125 C 2.90625 -1.351562 2.722656 -1.222656 2.484375 -1.140625 L 3.296875 0 Z M 1.8125 -1.4375 C 2.113281 -1.4375 2.34375 -1.5 2.5 -1.625 C 2.664062 -1.757812 2.75 -1.953125 2.75 -2.203125 C 2.75 -2.441406 2.664062 -2.625 2.5 -2.75 C 2.34375 -2.882812 2.113281 -2.953125 1.8125 -2.953125 L 0.984375 -2.953125 L 0.984375 -1.4375 Z M 1.8125 -1.4375 "/></g></g></g><g fill="#ffffff" fill-opacity="1"><g transform="translate(212.1393, 260.11205)"><g><path d="M 2.953125 -0.421875 L 2.953125 0 L 0.5 0 L 0.5 -3.375 L 2.890625 -3.375 L 2.890625 -2.953125 L 0.984375 -2.953125 L 0.984375 -1.921875 L 2.6875 -1.921875 L 2.6875 -1.515625 L 0.984375 -1.515625 L 0.984375 -0.421875 Z M 2.953125 -0.421875 "/></g></g></g></svg>